<svg xmlns="http://www.w3.org/2000/svg" viewBox="0 0 36 36"><defs><style>.cls-1{fill:#095656;}.cls-2{fill:#fff;}</style></defs><g id="Objects"><rect class="cls-1" x="-2" width="40" height="36.14"/><path class="cls-2" d="M18.08,5A13.52,13.52,0,0,0,6.2,25h0c2,4-2.11,7.4-2.11,7.4s4.89.29,8.52-1.49c0-1.72,1.26-2.84,3.22-3.3V25.82h-.67a5.18,5.18,0,0,1-5.1-4.31,2,2,0,0,1-1-2c0-1.27.52-1.85,1.28-2.1A5.2,5.2,0,0,1,15.15,14h1.17a1.93,1.93,0,0,1,1.43-.63v-2a1,1,0,1,1,.66,0v2a1.93,1.93,0,0,1,1.43.63H21a5.2,5.2,0,0,1,4.85,3.39c.77.24,1.28.82,1.28,2.1a1.94,1.94,0,0,1-1,2A5.19,5.19,0,0,1,21,25.82h-.68v1.79c2,.46,3.22,1.58,3.22,3.3A13.53,13.53,0,0,0,18.08,5Z"/><path class="cls-2" d="M21.11,16.3H15.24a3.17,3.17,0,0,0-3.17,3.17v1.08a3.17,3.17,0,0,0,3.17,3.17h5.87a3.17,3.17,0,0,0,3.17-3.17V19.47A3.17,3.17,0,0,0,21.11,16.3Zm-6,3.79a.91.91,0,1,1,.91-.91A.9.9,0,0,1,15.08,20.09Zm4.4.86a1.31,1.31,0,0,1-2.61,0V20.9h2.62A.11.11,0,0,1,19.48,21Zm1.79-.86a.91.91,0,1,1,.9-.91A.9.9,0,0,1,21.27,20.09Z"/></g></svg>