<svg xmlns="http://www.w3.org/2000/svg" xmlns:xlink="http://www.w3.org/1999/xlink" viewBox="0 0 36 36"><defs><style>.cls-1{fill:none;}.cls-2{isolation:isolate;}.cls-3{fill:#019ee9;}.cls-4{fill:#fff;}.cls-5{clip-path:url(#clip-path);}.cls-6{fill:#eeeff1;}.cls-7{fill:#262626;}.cls-8{mix-blend-mode:multiply;}.cls-9{fill:#d1d2d4;}</style><clipPath id="clip-path"><path class="cls-1" d="M18,1.5A15,15,0,0,0,5.92,25.3s1.7,4.25-1.54,9.18c2.65.25,6.33-2.14,8.64-3.9A15,15,0,1,0,18,1.5Z"/></clipPath></defs><g class="cls-2"><g id="Objects"><path class="cls-3" d="M18,1.5A15,15,0,0,0,5.92,25.3s1.7,4.25-1.54,9.18c2.65.25,6.33-2.14,8.64-3.9A15,15,0,1,0,18,1.5Z"/><path class="cls-4" d="M23.61,29.5a.91.91,0,0,1-.31-1.76,8.21,8.21,0,0,0,3.25-2.87.9.9,0,0,1,1.26-.21A.91.91,0,0,1,28,25.93a9.66,9.66,0,0,1-4.11,3.52A.82.82,0,0,1,23.61,29.5Z"/><path class="cls-4" d="M13.62,26.51A16.85,16.85,0,0,0,18,27a16.85,16.85,0,0,0,4.38-.49,3.84,3.84,0,0,0-2.44-.8H16.06A3.84,3.84,0,0,0,13.62,26.51Z"/><g class="cls-5"><path class="cls-4" d="M18,9.85C12.27,9.85,7.62,11,7.62,19.18A5.83,5.83,0,0,0,13.45,25h9.1a5.83,5.83,0,0,0,5.83-5.83C28.38,11,23.74,9.85,18,9.85Z"/><path class="cls-4" d="M18,9.85C12.27,9.85,7.62,11,7.62,19.18A5.83,5.83,0,0,0,13.45,25h9.1a5.83,5.83,0,0,0,5.83-5.83C28.38,11,23.74,9.85,18,9.85Z"/><path class="cls-6" d="M23.74,21.07H12.26c-3.45,0-3.83-1.88-4.47-4.41a17.53,17.53,0,0,0-.17,2.52A5.83,5.83,0,0,0,13.45,25h9.1a5.83,5.83,0,0,0,5.83-5.83,17.53,17.53,0,0,0-.17-2.52C27.57,19.19,27.19,21.07,23.74,21.07Z"/><path d="M23,20.1H13.24c-2.69,0-3.71-1.05-3.71-2.64s1.56-3.11,4.52-3.11h8.09c3,0,4.52,1.52,4.52,3.11S25.64,20.1,23,20.1Z"/><path class="cls-7" d="M18,17.7a54.53,54.53,0,0,0,8.63-.63c-.23-1.44-1.77-2.72-4.49-2.72H14.05c-2.74,0-4.28,1.3-4.49,2.75A55.07,55.07,0,0,0,18,17.7Z"/><path class="cls-4" d="M14.48,19.07a1.86,1.86,0,1,1,1.85-1.86A1.86,1.86,0,0,1,14.48,19.07Zm0-3.25a1.39,1.39,0,1,0,1.39,1.39A1.39,1.39,0,0,0,14.48,15.82Z"/><path d="M15.39,17.21a.91.91,0,1,1-.91-.91A.91.91,0,0,1,15.39,17.21Z"/><path class="cls-4" d="M14.54,16.84a.38.38,0,1,1-.38-.38A.38.38,0,0,1,14.54,16.84Z"/><path class="cls-4" d="M21.52,19.07a1.86,1.86,0,1,1,1.86-1.86A1.86,1.86,0,0,1,21.52,19.07Zm0-3.25a1.39,1.39,0,1,0,1.39,1.39A1.39,1.39,0,0,0,21.52,15.82Z"/><path d="M20.61,17.21a.91.91,0,1,0,.91-.91A.91.91,0,0,0,20.61,17.21Z"/><path class="cls-4" d="M21.46,16.84a.38.38,0,1,0,.38-.38A.38.38,0,0,0,21.46,16.84Z"/><g class="cls-8"><path d="M18,23.37a3.44,3.44,0,0,1-2.72-1.11.35.35,0,0,1,.06-.49.36.36,0,0,1,.5.06,2.78,2.78,0,0,0,2.16.84,2.78,2.78,0,0,0,2.16-.84.36.36,0,0,1,.5-.06.35.35,0,0,1,.06.49A3.44,3.44,0,0,1,18,23.37Z"/></g><path class="cls-6" d="M18,37.15c-2,0-4.15-2-4.8-4.52l-.63-2.4a3.43,3.43,0,0,1,3.49-4.52h3.88a3.43,3.43,0,0,1,3.49,4.52l-.63,2.4C22.15,35.13,20,37.15,18,37.15Z"/><path class="cls-6" d="M18,11.38a61.57,61.57,0,0,0,6.71-.33A14.27,14.27,0,0,0,18,9.85a14.27,14.27,0,0,0-6.71,1.2A61.57,61.57,0,0,0,18,11.38Z"/><path class="cls-9" d="M20.44,10a.63.63,0,0,1-.63.63H16.19a.63.63,0,0,1-.63-.63h0a.63.63,0,0,1,.63-.63h3.62a.63.63,0,0,1,.63.63Z"/><rect class="cls-9" x="17.77" y="6.45" width="0.47" height="2.93"/><path class="cls-4" d="M19.22,6.45A1.22,1.22,0,1,1,18,5.23,1.22,1.22,0,0,1,19.22,6.45Z"/><path class="cls-6" d="M18,7.21a1.21,1.21,0,0,0,1.19-1,.85.85,0,0,1,0,.23,1.22,1.22,0,1,1-2.44,0,.85.85,0,0,1,0-.23A1.21,1.21,0,0,0,18,7.21Z"/><path class="cls-6" d="M16.19,9.69h3.62a.63.63,0,0,1,.61.48.78.78,0,0,0,0-.16.63.63,0,0,0-.63-.63H16.19a.63.63,0,0,0-.63.63.78.78,0,0,0,0,.16A.63.63,0,0,1,16.19,9.69Z"/></g></g></g></svg>