<?xml version="1.0" encoding="UTF-8"?>
<svg xmlns="http://www.w3.org/2000/svg" xmlns:xlink="http://www.w3.org/1999/xlink" width="36px" height="36px" viewBox="0 0 36 36" version="1.1">
<g id="surface1">
<path style=" stroke:none;fill-rule:nonzero;fill:rgb(4.313725%,33.72549%,33.72549%);fill-opacity:1;" d="M 35.957031 17.992188 L 35.949219 35.988281 L 35.945312 18.003906 L 35.933594 0.0273438 L 0 0.0273438 L 0 36 L 35.988281 36 L 35.988281 18 C 35.988281 8.101562 35.984375 0 35.976562 0 C 35.96875 0 35.960938 8.097656 35.957031 17.992188 Z M 18.679688 6.527344 C 20.761719 6.636719 22.585938 7.222656 24.34375 8.351562 C 26.976562 10.046875 28.828125 12.875 29.328125 15.984375 C 29.449219 16.726562 29.464844 16.953125 29.464844 17.851562 C 29.464844 18.769531 29.4375 19.117188 29.300781 19.855469 C 28.664062 23.363281 26.441406 26.339844 23.242188 27.960938 C 23 28.082031 22.789062 28.183594 22.769531 28.183594 C 22.746094 28.183594 22.730469 28.105469 22.71875 27.960938 C 22.625 26.753906 21.726562 25.878906 20.15625 25.46875 L 20.039062 25.4375 L 20.039062 23.9375 L 20.316406 23.9375 C 20.726562 23.933594 21.210938 23.890625 21.492188 23.828125 C 22.816406 23.542969 23.925781 22.671875 24.5 21.464844 C 24.652344 21.148438 24.785156 20.769531 24.832031 20.507812 L 24.863281 20.332031 L 25.03125 20.226562 C 25.351562 20.023438 25.5625 19.714844 25.679688 19.289062 C 25.746094 19.035156 25.746094 18.28125 25.679688 17.992188 C 25.570312 17.53125 25.3125 17.1875 24.933594 16.996094 C 24.828125 16.941406 24.722656 16.898438 24.707031 16.898438 C 24.691406 16.898438 24.632812 16.792969 24.578125 16.660156 C 24.367188 16.171875 24.050781 15.710938 23.632812 15.300781 C 23.023438 14.699219 22.28125 14.308594 21.425781 14.128906 C 21.199219 14.082031 21.023438 14.070312 20.386719 14.058594 L 19.621094 14.046875 L 19.492188 13.925781 C 19.328125 13.769531 19.03125 13.628906 18.757812 13.578125 C 18.644531 13.554688 18.519531 13.53125 18.488281 13.523438 L 18.425781 13.511719 L 18.425781 11.859375 L 18.566406 11.78125 C 19.117188 11.460938 19.074219 10.65625 18.488281 10.367188 C 18.382812 10.3125 18.316406 10.304688 18.140625 10.304688 C 17.890625 10.304688 17.726562 10.375 17.558594 10.550781 C 17.191406 10.929688 17.304688 11.578125 17.78125 11.820312 L 17.886719 11.875 L 17.886719 13.511719 L 17.789062 13.53125 C 17.289062 13.613281 17.023438 13.71875 16.796875 13.921875 L 16.664062 14.046875 L 15.898438 14.058594 C 15.246094 14.070312 15.089844 14.082031 14.859375 14.128906 C 13.476562 14.429688 12.378906 15.285156 11.78125 16.527344 C 11.707031 16.679688 11.648438 16.816406 11.648438 16.835938 C 11.648438 16.855469 11.542969 16.917969 11.417969 16.976562 C 10.992188 17.175781 10.714844 17.53125 10.609375 18.027344 C 10.542969 18.320312 10.542969 18.96875 10.609375 19.25 C 10.707031 19.691406 10.925781 20.019531 11.253906 20.226562 C 11.414062 20.328125 11.429688 20.34375 11.445312 20.449219 C 11.480469 20.648438 11.613281 21.074219 11.726562 21.324219 C 12.28125 22.589844 13.433594 23.535156 14.769531 23.828125 C 15.058594 23.890625 15.589844 23.9375 15.980469 23.9375 L 16.246094 23.9375 L 16.246094 25.4375 L 16.132812 25.46875 C 15.636719 25.597656 15.136719 25.808594 14.785156 26.039062 C 14.058594 26.515625 13.667969 27.128906 13.578125 27.925781 L 13.546875 28.207031 L 13.335938 28.304688 C 12.171875 28.835938 10.730469 29.191406 9.039062 29.363281 C 8.378906 29.429688 7.039062 29.484375 6.691406 29.460938 L 6.425781 29.4375 L 6.742188 29.113281 C 8.019531 27.808594 8.683594 26.347656 8.625 24.960938 C 8.597656 24.265625 8.476562 23.863281 8.042969 22.984375 C 7.488281 21.859375 7.179688 20.945312 6.984375 19.839844 C 6.777344 18.683594 6.75 17.386719 6.914062 16.242188 C 7.257812 13.859375 8.324219 11.679688 9.980469 9.984375 C 10.792969 9.148438 11.410156 8.660156 12.398438 8.074219 C 13.933594 7.164062 15.730469 6.625 17.550781 6.53125 C 18.113281 6.5 18.128906 6.5 18.679688 6.527344 Z M 21.128906 16 C 22.226562 16.191406 23.074219 17.011719 23.300781 18.109375 C 23.34375 18.335938 23.351562 18.449219 23.34375 19.167969 C 23.332031 19.890625 23.324219 19.996094 23.273438 20.183594 C 23.148438 20.636719 22.941406 21 22.621094 21.339844 C 22.269531 21.707031 21.9375 21.917969 21.476562 22.066406 C 21.078125 22.191406 20.980469 22.195312 18.074219 22.1875 C 15.367188 22.175781 15.34375 22.175781 15.136719 22.117188 C 14.617188 21.972656 14.238281 21.75 13.878906 21.386719 C 13.523438 21.027344 13.300781 20.636719 13.175781 20.132812 C 13.117188 19.910156 13.113281 19.839844 13.117188 19.046875 C 13.117188 18.269531 13.121094 18.183594 13.171875 17.996094 C 13.46875 16.933594 14.265625 16.1875 15.3125 16 C 15.464844 15.972656 16.113281 15.964844 18.199219 15.960938 C 20.5 15.957031 20.925781 15.964844 21.128906 16 Z M 21.128906 16 "/>
<path style=" stroke:none;fill-rule:nonzero;fill:rgb(4.313725%,33.72549%,33.72549%);fill-opacity:1;" d="M 15.492188 17.652344 C 15.335938 17.683594 15.257812 17.726562 15.132812 17.839844 C 14.964844 17.992188 14.894531 18.15625 14.894531 18.382812 C 14.894531 18.890625 15.359375 19.234375 15.855469 19.089844 C 16.0625 19.027344 16.269531 18.828125 16.339844 18.621094 C 16.460938 18.253906 16.285156 17.851562 15.941406 17.703125 C 15.800781 17.644531 15.617188 17.625 15.492188 17.652344 Z M 15.492188 17.652344 "/>
<path style=" stroke:none;fill-rule:nonzero;fill:rgb(4.313725%,33.72549%,33.72549%);fill-opacity:1;" d="M 20.664062 17.652344 C 20.3125 17.722656 20.078125 18.019531 20.082031 18.390625 C 20.085938 19.164062 21.121094 19.40625 21.484375 18.714844 C 21.546875 18.601562 21.558594 18.542969 21.554688 18.375 C 21.554688 18.203125 21.546875 18.152344 21.476562 18.03125 C 21.320312 17.738281 20.992188 17.585938 20.664062 17.652344 Z M 20.664062 17.652344 "/>
<path style=" stroke:none;fill-rule:nonzero;fill:rgb(4.313725%,33.72549%,33.72549%);fill-opacity:1;" d="M 17.132812 19.871094 C 17.136719 19.988281 17.222656 20.277344 17.300781 20.421875 C 17.464844 20.730469 17.738281 20.894531 18.144531 20.921875 C 18.722656 20.957031 19.128906 20.671875 19.273438 20.128906 C 19.292969 20.046875 19.3125 19.941406 19.3125 19.902344 L 19.3125 19.828125 L 18.222656 19.828125 C 17.203125 19.828125 17.132812 19.828125 17.132812 19.871094 Z M 17.132812 19.871094 "/>
</g>
</svg>
