<?xml version="1.0" standalone="no"?>
<!DOCTYPE svg PUBLIC "-//W3C//DTD SVG 20010904//EN"
 "http://www.w3.org/TR/2001/REC-SVG-20010904/DTD/svg10.dtd">
<svg version="1.0" xmlns="http://www.w3.org/2000/svg"
 width="36.000000pt" height="36.000000pt" viewBox="0 0 36.000000 36.000000"
 preserveAspectRatio="xMidYMid meet">

<g transform="translate(0.000000,36.000000) scale(0.100000,-0.100000)"
fill="#000000" stroke="none">
<path d="M0 180 l0 -180 180 0 180 0 0 180 0 180 -180 0 -180 0 0 -180z m248
94 c13 -9 30 -32 39 -52 19 -45 4 -104 -32 -128 -23 -15 -26 -15 -41 1 -15 14
-15 18 -3 26 8 5 17 9 20 9 3 0 11 11 17 24 9 19 7 28 -9 45 -36 38 -129 19
-129 -26 0 -8 12 -26 26 -40 25 -25 25 -26 7 -44 -10 -10 -29 -20 -43 -24 -25
-6 -25 -6 -27 75 -2 62 1 87 14 107 34 51 105 63 161 27z m-14 -89 c3 -8 3
-22 0 -30 -8 -21 -92 -21 -100 0 -12 31 4 45 50 45 30 0 46 -5 50 -15z"/>
</g>
</svg>
