<?xml version="1.0" standalone="no"?>
<!DOCTYPE svg PUBLIC "-//W3C//DTD SVG 20010904//EN"
 "http://www.w3.org/TR/2001/REC-SVG-20010904/DTD/svg10.dtd">
<svg version="1.0" xmlns="http://www.w3.org/2000/svg"
 width="1338.000000pt" height="1340.000000pt" viewBox="0 0 1338.000000 1340.000000"
 preserveAspectRatio="xMidYMid meet">

<g transform="translate(0.000000,1340.000000) scale(0.100000,-0.100000)"
fill="#0B5656" stroke="none">
<path d="M13368 6703 l-3 -6698 -2 6693 -3 6692 -6680 0 -6680 0 0 -6695 0
-6695 6690 0 6690 0 0 6700 c0 3685 -2 6700 -5 6700 -3 0 -6 -3014 -7 -6697z
m-6423 4267 c774 -41 1452 -259 2105 -679 980 -630 1667 -1683 1854 -2841 45
-276 51 -360 51 -695 -1 -342 -11 -471 -61 -745 -237 -1307 -1064 -2415 -2253
-3017 -90 -46 -169 -83 -176 -83 -8 0 -14 28 -18 83 -35 449 -370 774 -954
927 l-43 11 0 279 0 280 103 0 c153 1 333 17 438 40 492 107 904 431 1118 880
56 118 105 259 123 356 l12 66 62 39 c119 76 198 190 241 349 25 94 25 375 0
483 -41 172 -137 300 -277 371 -40 20 -78 36 -84 36 -7 0 -28 39 -49 88 -78
183 -196 354 -351 507 -226 223 -502 369 -821 436 -83 17 -149 22 -385 26
l-285 5 -48 45 c-61 57 -172 110 -273 129 -43 8 -89 17 -101 20 l-23 4 0 308
1 307 51 30 c205 119 189 419 -28 526 -40 20 -64 24 -129 23 -93 0 -155 -26
-217 -91 -136 -141 -94 -383 82 -473 l40 -20 0 -305 0 -304 -37 -7 c-186 -31
-284 -71 -368 -146 l-50 -46 -285 -5 c-242 -4 -300 -8 -385 -26 -515 -112
-923 -430 -1145 -893 -27 -57 -50 -108 -50 -115 0 -7 -38 -30 -85 -52 -159
-74 -261 -206 -301 -391 -24 -109 -24 -350 0 -455 37 -165 118 -286 240 -364
59 -37 65 -44 71 -83 13 -74 63 -233 104 -325 207 -471 636 -824 1132 -932
107 -23 305 -41 450 -41 l99 0 0 -280 0 -279 -42 -11 c-184 -48 -370 -127
-501 -213 -270 -176 -416 -405 -449 -702 l-11 -104 -79 -36 c-433 -198 -968
-330 -1598 -395 -245 -25 -743 -45 -873 -36 l-98 8 118 121 c475 486 722 1030
700 1546 -11 259 -55 408 -217 736 -206 419 -321 759 -394 1170 -77 430 -86
913 -25 1340 127 886 524 1698 1139 2329 303 311 532 492 899 710 571 339
1239 540 1916 575 209 12 215 12 420 1z m910 -3525 c409 -72 723 -377 807
-785 17 -85 19 -127 16 -395 -4 -269 -7 -308 -26 -378 -46 -168 -123 -304
-242 -430 -130 -137 -254 -216 -426 -270 -148 -47 -184 -48 -1264 -45 -1007 3
-1016 4 -1092 25 -193 55 -335 137 -468 272 -133 134 -215 279 -262 467 -22
83 -23 109 -22 404 0 290 2 321 21 392 111 395 407 673 796 743 56 10 298 13
1073 14 855 1 1014 -1 1089 -14z"/>
<path d="M5760 6830 c-59 -12 -88 -28 -134 -70 -62 -57 -89 -118 -89 -202 0
-189 173 -317 358 -264 77 23 154 98 180 175 45 136 -20 286 -149 341 -51 22
-120 30 -166 20z"/>
<path d="M7683 6830 c-131 -27 -218 -137 -217 -275 2 -289 387 -378 522 -121
22 42 27 64 26 126 0 64 -4 83 -29 128 -59 109 -181 166 -302 142z"/>
<path d="M6370 6003 c1 -43 33 -151 62 -205 61 -115 163 -176 314 -185 215
-14 366 92 419 294 8 31 15 70 15 85 l0 28 -405 0 c-379 0 -405 -1 -405 -17z"/>
</g>
</svg>
