<svg id="Layer_1" enable-background="new 0 0 512 512" height="512" viewBox="0 0 512 512" width="512" xmlns="http://www.w3.org/2000/svg"><g clip-rule="evenodd" fill-rule="evenodd"><path d="m251.315 487.468c-59.965-41.623-106.783-82.58-138.749-126.381-32.43-44.435-49.54-91.625-49.54-145.101 0-53.287 21.6-101.531 56.521-136.452s83.166-56.522 136.453-56.522 101.531 21.6 136.453 56.521c34.921 34.921 56.521 83.165 56.521 136.452 0 53.476-17.111 100.667-49.54 145.101-31.994 43.838-78.864 84.828-138.903 126.488-2.859 1.975-6.555 1.825-9.216-.106zm59.377-326.174c-13.996-13.996-33.333-22.654-54.692-22.654s-40.695 8.657-54.692 22.654c-13.997 13.996-22.654 33.333-22.654 54.692s8.658 40.696 22.654 54.692c13.996 13.997 33.333 22.654 54.692 22.654s40.696-8.657 54.692-22.654c13.996-13.996 22.654-33.333 22.654-54.692s-8.657-40.695-22.654-54.692z" fill="#e4404d"/><path d="m244.75 482.875c-56.824-40.048-101.394-79.599-132.184-121.788-32.43-44.435-49.54-91.625-49.54-145.101 0-53.287 21.6-101.531 56.521-136.452 32.447-32.447 76.395-53.389 125.202-56.195 48.808 2.806 92.756 23.748 125.203 56.195 34.921 34.921 56.521 83.165 56.521 136.452 0 53.476-17.111 100.667-49.54 145.101-30.789 42.189-75.359 81.74-132.183 121.788zm0-343.421c-3.673-.535-7.429-.814-11.25-.814-21.359 0-40.695 8.657-54.692 22.654-13.997 13.996-22.654 33.333-22.654 54.692s8.658 40.696 22.654 54.692c13.996 13.997 33.333 22.654 54.692 22.654 3.821 0 7.577-.279 11.25-.814 3.673.535 7.429.814 11.25.814 21.359 0 40.696-8.657 54.692-22.654 13.996-13.996 22.654-33.333 22.654-54.692s-8.657-40.696-22.654-54.692c-13.996-13.996-33.333-22.654-54.692-22.654-3.821 0-7.578.279-11.25.814z" fill="#fd4755"/></g></svg>