<?xml version="1.0" encoding="UTF-8"?>
<svg xmlns="http://www.w3.org/2000/svg" xmlns:xlink="http://www.w3.org/1999/xlink" width="36px" height="36px" viewBox="0 0 36 36" version="1.1">
<defs>
<clipPath id="clip1">
  <path d="M 7 9 L 29 9 L 29 25 L 7 25 Z M 7 9 "/>
</clipPath>
<clipPath id="clip2">
  <path d="M 18 1.5 C 12.375 1.523438 7.238281 4.695312 4.691406 9.710938 C 2.144531 14.726562 2.621094 20.746094 5.921875 25.300781 C 5.921875 25.300781 7.621094 29.550781 4.378906 34.480469 C 7.03125 34.730469 10.710938 32.339844 13.019531 30.578125 C 18.667969 32.652344 25.007812 31.152344 29.125 26.765625 C 33.242188 22.382812 34.339844 15.960938 31.917969 10.453125 C 29.492188 4.949219 24.015625 1.425781 18 1.5 Z M 18 1.5 "/>
</clipPath>
<clipPath id="clip3">
  <path d="M 7 16 L 29 16 L 29 25 L 7 25 Z M 7 16 "/>
</clipPath>
<clipPath id="clip4">
  <path d="M 18 1.5 C 12.375 1.523438 7.238281 4.695312 4.691406 9.710938 C 2.144531 14.726562 2.621094 20.746094 5.921875 25.300781 C 5.921875 25.300781 7.621094 29.550781 4.378906 34.480469 C 7.03125 34.730469 10.710938 32.339844 13.019531 30.578125 C 18.667969 32.652344 25.007812 31.152344 29.125 26.765625 C 33.242188 22.382812 34.339844 15.960938 31.917969 10.453125 C 29.492188 4.949219 24.015625 1.425781 18 1.5 Z M 18 1.5 "/>
</clipPath>
<clipPath id="clip5">
  <path d="M 9 14 L 27 14 L 27 21 L 9 21 Z M 9 14 "/>
</clipPath>
<clipPath id="clip6">
  <path d="M 18 1.5 C 12.375 1.523438 7.238281 4.695312 4.691406 9.710938 C 2.144531 14.726562 2.621094 20.746094 5.921875 25.300781 C 5.921875 25.300781 7.621094 29.550781 4.378906 34.480469 C 7.03125 34.730469 10.710938 32.339844 13.019531 30.578125 C 18.667969 32.652344 25.007812 31.152344 29.125 26.765625 C 33.242188 22.382812 34.339844 15.960938 31.917969 10.453125 C 29.492188 4.949219 24.015625 1.425781 18 1.5 Z M 18 1.5 "/>
</clipPath>
<clipPath id="clip7">
  <path d="M 9 14 L 27 14 L 27 18 L 9 18 Z M 9 14 "/>
</clipPath>
<clipPath id="clip8">
  <path d="M 18 1.5 C 12.375 1.523438 7.238281 4.695312 4.691406 9.710938 C 2.144531 14.726562 2.621094 20.746094 5.921875 25.300781 C 5.921875 25.300781 7.621094 29.550781 4.378906 34.480469 C 7.03125 34.730469 10.710938 32.339844 13.019531 30.578125 C 18.667969 32.652344 25.007812 31.152344 29.125 26.765625 C 33.242188 22.382812 34.339844 15.960938 31.917969 10.453125 C 29.492188 4.949219 24.015625 1.425781 18 1.5 Z M 18 1.5 "/>
</clipPath>
<clipPath id="clip9">
  <path d="M 12 15 L 17 15 L 17 20 L 12 20 Z M 12 15 "/>
</clipPath>
<clipPath id="clip10">
  <path d="M 18 1.5 C 12.375 1.523438 7.238281 4.695312 4.691406 9.710938 C 2.144531 14.726562 2.621094 20.746094 5.921875 25.300781 C 5.921875 25.300781 7.621094 29.550781 4.378906 34.480469 C 7.03125 34.730469 10.710938 32.339844 13.019531 30.578125 C 18.667969 32.652344 25.007812 31.152344 29.125 26.765625 C 33.242188 22.382812 34.339844 15.960938 31.917969 10.453125 C 29.492188 4.949219 24.015625 1.425781 18 1.5 Z M 18 1.5 "/>
</clipPath>
<clipPath id="clip11">
  <path d="M 13 16 L 16 16 L 16 19 L 13 19 Z M 13 16 "/>
</clipPath>
<clipPath id="clip12">
  <path d="M 18 1.5 C 12.375 1.523438 7.238281 4.695312 4.691406 9.710938 C 2.144531 14.726562 2.621094 20.746094 5.921875 25.300781 C 5.921875 25.300781 7.621094 29.550781 4.378906 34.480469 C 7.03125 34.730469 10.710938 32.339844 13.019531 30.578125 C 18.667969 32.652344 25.007812 31.152344 29.125 26.765625 C 33.242188 22.382812 34.339844 15.960938 31.917969 10.453125 C 29.492188 4.949219 24.015625 1.425781 18 1.5 Z M 18 1.5 "/>
</clipPath>
<clipPath id="clip13">
  <path d="M 13 16 L 15 16 L 15 18 L 13 18 Z M 13 16 "/>
</clipPath>
<clipPath id="clip14">
  <path d="M 18 1.5 C 12.375 1.523438 7.238281 4.695312 4.691406 9.710938 C 2.144531 14.726562 2.621094 20.746094 5.921875 25.300781 C 5.921875 25.300781 7.621094 29.550781 4.378906 34.480469 C 7.03125 34.730469 10.710938 32.339844 13.019531 30.578125 C 18.667969 32.652344 25.007812 31.152344 29.125 26.765625 C 33.242188 22.382812 34.339844 15.960938 31.917969 10.453125 C 29.492188 4.949219 24.015625 1.425781 18 1.5 Z M 18 1.5 "/>
</clipPath>
<clipPath id="clip15">
  <path d="M 19 15 L 24 15 L 24 20 L 19 20 Z M 19 15 "/>
</clipPath>
<clipPath id="clip16">
  <path d="M 18 1.5 C 12.375 1.523438 7.238281 4.695312 4.691406 9.710938 C 2.144531 14.726562 2.621094 20.746094 5.921875 25.300781 C 5.921875 25.300781 7.621094 29.550781 4.378906 34.480469 C 7.03125 34.730469 10.710938 32.339844 13.019531 30.578125 C 18.667969 32.652344 25.007812 31.152344 29.125 26.765625 C 33.242188 22.382812 34.339844 15.960938 31.917969 10.453125 C 29.492188 4.949219 24.015625 1.425781 18 1.5 Z M 18 1.5 "/>
</clipPath>
<clipPath id="clip17">
  <path d="M 20 16 L 23 16 L 23 19 L 20 19 Z M 20 16 "/>
</clipPath>
<clipPath id="clip18">
  <path d="M 18 1.5 C 12.375 1.523438 7.238281 4.695312 4.691406 9.710938 C 2.144531 14.726562 2.621094 20.746094 5.921875 25.300781 C 5.921875 25.300781 7.621094 29.550781 4.378906 34.480469 C 7.03125 34.730469 10.710938 32.339844 13.019531 30.578125 C 18.667969 32.652344 25.007812 31.152344 29.125 26.765625 C 33.242188 22.382812 34.339844 15.960938 31.917969 10.453125 C 29.492188 4.949219 24.015625 1.425781 18 1.5 Z M 18 1.5 "/>
</clipPath>
<clipPath id="clip19">
  <path d="M 21 16 L 23 16 L 23 18 L 21 18 Z M 21 16 "/>
</clipPath>
<clipPath id="clip20">
  <path d="M 18 1.5 C 12.375 1.523438 7.238281 4.695312 4.691406 9.710938 C 2.144531 14.726562 2.621094 20.746094 5.921875 25.300781 C 5.921875 25.300781 7.621094 29.550781 4.378906 34.480469 C 7.03125 34.730469 10.710938 32.339844 13.019531 30.578125 C 18.667969 32.652344 25.007812 31.152344 29.125 26.765625 C 33.242188 22.382812 34.339844 15.960938 31.917969 10.453125 C 29.492188 4.949219 24.015625 1.425781 18 1.5 Z M 18 1.5 "/>
</clipPath>
<clipPath id="clip21">
  <path d="M 15 21 L 21 21 L 21 24 L 15 24 Z M 15 21 "/>
</clipPath>
<clipPath id="clip22">
  <path d="M 18 1.5 C 12.375 1.523438 7.238281 4.695312 4.691406 9.710938 C 2.144531 14.726562 2.621094 20.746094 5.921875 25.300781 C 5.921875 25.300781 7.621094 29.550781 4.378906 34.480469 C 7.03125 34.730469 10.710938 32.339844 13.019531 30.578125 C 18.667969 32.652344 25.007812 31.152344 29.125 26.765625 C 33.242188 22.382812 34.339844 15.960938 31.917969 10.453125 C 29.492188 4.949219 24.015625 1.425781 18 1.5 Z M 18 1.5 "/>
</clipPath>
<clipPath id="clip23">
  <path d="M 12 25 L 24 25 L 24 35 L 12 35 Z M 12 25 "/>
</clipPath>
<clipPath id="clip24">
  <path d="M 18 1.5 C 12.375 1.523438 7.238281 4.695312 4.691406 9.710938 C 2.144531 14.726562 2.621094 20.746094 5.921875 25.300781 C 5.921875 25.300781 7.621094 29.550781 4.378906 34.480469 C 7.03125 34.730469 10.710938 32.339844 13.019531 30.578125 C 18.667969 32.652344 25.007812 31.152344 29.125 26.765625 C 33.242188 22.382812 34.339844 15.960938 31.917969 10.453125 C 29.492188 4.949219 24.015625 1.425781 18 1.5 Z M 18 1.5 "/>
</clipPath>
<clipPath id="clip25">
  <path d="M 11 9 L 25 9 L 25 12 L 11 12 Z M 11 9 "/>
</clipPath>
<clipPath id="clip26">
  <path d="M 18 1.5 C 12.375 1.523438 7.238281 4.695312 4.691406 9.710938 C 2.144531 14.726562 2.621094 20.746094 5.921875 25.300781 C 5.921875 25.300781 7.621094 29.550781 4.378906 34.480469 C 7.03125 34.730469 10.710938 32.339844 13.019531 30.578125 C 18.667969 32.652344 25.007812 31.152344 29.125 26.765625 C 33.242188 22.382812 34.339844 15.960938 31.917969 10.453125 C 29.492188 4.949219 24.015625 1.425781 18 1.5 Z M 18 1.5 "/>
</clipPath>
<clipPath id="clip27">
  <path d="M 15 9 L 21 9 L 21 11 L 15 11 Z M 15 9 "/>
</clipPath>
<clipPath id="clip28">
  <path d="M 18 1.5 C 12.375 1.523438 7.238281 4.695312 4.691406 9.710938 C 2.144531 14.726562 2.621094 20.746094 5.921875 25.300781 C 5.921875 25.300781 7.621094 29.550781 4.378906 34.480469 C 7.03125 34.730469 10.710938 32.339844 13.019531 30.578125 C 18.667969 32.652344 25.007812 31.152344 29.125 26.765625 C 33.242188 22.382812 34.339844 15.960938 31.917969 10.453125 C 29.492188 4.949219 24.015625 1.425781 18 1.5 Z M 18 1.5 "/>
</clipPath>
<clipPath id="clip29">
  <path d="M 17 6 L 19 6 L 19 10 L 17 10 Z M 17 6 "/>
</clipPath>
<clipPath id="clip30">
  <path d="M 18 1.5 C 12.375 1.523438 7.238281 4.695312 4.691406 9.710938 C 2.144531 14.726562 2.621094 20.746094 5.921875 25.300781 C 5.921875 25.300781 7.621094 29.550781 4.378906 34.480469 C 7.03125 34.730469 10.710938 32.339844 13.019531 30.578125 C 18.667969 32.652344 25.007812 31.152344 29.125 26.765625 C 33.242188 22.382812 34.339844 15.960938 31.917969 10.453125 C 29.492188 4.949219 24.015625 1.425781 18 1.5 Z M 18 1.5 "/>
</clipPath>
<clipPath id="clip31">
  <path d="M 16 5 L 20 5 L 20 8 L 16 8 Z M 16 5 "/>
</clipPath>
<clipPath id="clip32">
  <path d="M 18 1.5 C 12.375 1.523438 7.238281 4.695312 4.691406 9.710938 C 2.144531 14.726562 2.621094 20.746094 5.921875 25.300781 C 5.921875 25.300781 7.621094 29.550781 4.378906 34.480469 C 7.03125 34.730469 10.710938 32.339844 13.019531 30.578125 C 18.667969 32.652344 25.007812 31.152344 29.125 26.765625 C 33.242188 22.382812 34.339844 15.960938 31.917969 10.453125 C 29.492188 4.949219 24.015625 1.425781 18 1.5 Z M 18 1.5 "/>
</clipPath>
<clipPath id="clip33">
  <path d="M 16 6 L 20 6 L 20 8 L 16 8 Z M 16 6 "/>
</clipPath>
<clipPath id="clip34">
  <path d="M 18 1.5 C 12.375 1.523438 7.238281 4.695312 4.691406 9.710938 C 2.144531 14.726562 2.621094 20.746094 5.921875 25.300781 C 5.921875 25.300781 7.621094 29.550781 4.378906 34.480469 C 7.03125 34.730469 10.710938 32.339844 13.019531 30.578125 C 18.667969 32.652344 25.007812 31.152344 29.125 26.765625 C 33.242188 22.382812 34.339844 15.960938 31.917969 10.453125 C 29.492188 4.949219 24.015625 1.425781 18 1.5 Z M 18 1.5 "/>
</clipPath>
<clipPath id="clip35">
  <path d="M 15 9 L 21 9 L 21 11 L 15 11 Z M 15 9 "/>
</clipPath>
<clipPath id="clip36">
  <path d="M 18 1.5 C 12.375 1.523438 7.238281 4.695312 4.691406 9.710938 C 2.144531 14.726562 2.621094 20.746094 5.921875 25.300781 C 5.921875 25.300781 7.621094 29.550781 4.378906 34.480469 C 7.03125 34.730469 10.710938 32.339844 13.019531 30.578125 C 18.667969 32.652344 25.007812 31.152344 29.125 26.765625 C 33.242188 22.382812 34.339844 15.960938 31.917969 10.453125 C 29.492188 4.949219 24.015625 1.425781 18 1.5 Z M 18 1.5 "/>
</clipPath>
</defs>
<g id="surface1">
<path style=" stroke:none;fill-rule:nonzero;fill:rgb(0.392157%,61.960784%,91.372549%);fill-opacity:1;" d="M 18 1.5 C 12.375 1.523438 7.238281 4.695312 4.691406 9.710938 C 2.144531 14.726562 2.621094 20.746094 5.921875 25.300781 C 5.921875 25.300781 7.621094 29.550781 4.378906 34.480469 C 7.03125 34.730469 10.710938 32.339844 13.019531 30.578125 C 18.667969 32.652344 25.007812 31.152344 29.125 26.765625 C 33.242188 22.382812 34.339844 15.960938 31.917969 10.453125 C 29.492188 4.949219 24.015625 1.425781 18 1.5 Z M 18 1.5 "/>
<path style=" stroke:none;fill-rule:nonzero;fill:rgb(100%,100%,100%);fill-opacity:1;" d="M 23.609375 29.5 C 23.175781 29.492188 22.804688 29.175781 22.726562 28.746094 C 22.652344 28.320312 22.890625 27.894531 23.300781 27.738281 C 24.621094 27.09375 25.742188 26.101562 26.550781 24.871094 C 26.6875 24.675781 26.898438 24.542969 27.136719 24.503906 C 27.371094 24.464844 27.617188 24.519531 27.808594 24.660156 C 28.210938 24.957031 28.296875 25.527344 28 25.929688 C 26.992188 27.472656 25.566406 28.691406 23.890625 29.449219 C 23.800781 29.484375 23.707031 29.5 23.609375 29.5 Z M 23.609375 29.5 "/>
<path style=" stroke:none;fill-rule:nonzero;fill:rgb(100%,100%,100%);fill-opacity:1;" d="M 13.621094 26.511719 C 15.050781 26.863281 16.523438 27.027344 18 27 C 19.476562 27.027344 20.949219 26.863281 22.378906 26.511719 C 21.683594 25.972656 20.820312 25.6875 19.941406 25.710938 L 16.058594 25.710938 C 15.179688 25.6875 14.316406 25.972656 13.621094 26.511719 Z M 13.621094 26.511719 "/>
<g clip-path="url(#clip1)" clip-rule="nonzero">
<g clip-path="url(#clip2)" clip-rule="nonzero">
<path style=" stroke:none;fill-rule:nonzero;fill:rgb(100%,100%,100%);fill-opacity:1;" d="M 18 9.851562 C 12.269531 9.851562 7.621094 11 7.621094 19.179688 C 7.625 22.394531 10.234375 25 13.449219 25 L 22.550781 25 C 25.769531 25 28.378906 22.390625 28.378906 19.171875 C 28.378906 11 23.738281 9.851562 18 9.851562 Z M 18 9.851562 "/>
<path style=" stroke:none;fill-rule:nonzero;fill:rgb(100%,100%,100%);fill-opacity:1;" d="M 18 9.851562 C 12.269531 9.851562 7.621094 11 7.621094 19.179688 C 7.625 22.394531 10.234375 25 13.449219 25 L 22.550781 25 C 25.769531 25 28.378906 22.390625 28.378906 19.171875 C 28.378906 11 23.738281 9.851562 18 9.851562 Z M 18 9.851562 "/>
</g>
</g>
<g clip-path="url(#clip3)" clip-rule="nonzero">
<g clip-path="url(#clip4)" clip-rule="nonzero">
<path style=" stroke:none;fill-rule:nonzero;fill:rgb(93.333333%,93.72549%,94.509804%);fill-opacity:1;" d="M 23.738281 21.070312 L 12.261719 21.070312 C 8.808594 21.070312 8.429688 19.191406 7.789062 16.660156 C 7.671875 17.496094 7.617188 18.335938 7.621094 19.179688 C 7.625 22.394531 10.234375 25 13.449219 25 L 22.550781 25 C 25.769531 25 28.378906 22.390625 28.378906 19.171875 C 28.382812 18.328125 28.328125 17.484375 28.210938 16.648438 C 27.570312 19.191406 27.191406 21.070312 23.738281 21.070312 Z M 23.738281 21.070312 "/>
</g>
</g>
<g clip-path="url(#clip5)" clip-rule="nonzero">
<g clip-path="url(#clip6)" clip-rule="nonzero">
<path style=" stroke:none;fill-rule:nonzero;fill:rgb(0%,0%,0%);fill-opacity:1;" d="M 23 20.101562 L 13.238281 20.101562 C 10.550781 20.101562 9.53125 19.050781 9.53125 17.460938 C 9.53125 15.871094 11.089844 14.351562 14.050781 14.351562 L 22.140625 14.351562 C 25.140625 14.351562 26.660156 15.871094 26.660156 17.460938 C 26.660156 19.050781 25.640625 20.101562 23 20.101562 Z M 23 20.101562 "/>
</g>
</g>
<g clip-path="url(#clip7)" clip-rule="nonzero">
<g clip-path="url(#clip8)" clip-rule="nonzero">
<path style=" stroke:none;fill-rule:nonzero;fill:rgb(14.901961%,14.901961%,14.901961%);fill-opacity:1;" d="M 18 17.699219 C 20.890625 17.71875 23.773438 17.507812 26.628906 17.070312 C 26.398438 15.628906 24.859375 14.351562 22.140625 14.351562 L 14.050781 14.351562 C 11.308594 14.351562 9.769531 15.648438 9.558594 17.101562 C 12.355469 17.515625 15.175781 17.714844 18 17.699219 Z M 18 17.699219 "/>
</g>
</g>
<g clip-path="url(#clip9)" clip-rule="nonzero">
<g clip-path="url(#clip10)" clip-rule="nonzero">
<path style=" stroke:none;fill-rule:nonzero;fill:rgb(100%,100%,100%);fill-opacity:1;" d="M 14.480469 19.070312 C 13.726562 19.074219 13.046875 18.625 12.753906 17.929688 C 12.464844 17.234375 12.621094 16.433594 13.152344 15.898438 C 13.683594 15.363281 14.484375 15.203125 15.179688 15.492188 C 15.875 15.777344 16.328125 16.457031 16.328125 17.210938 C 16.328125 18.234375 15.503906 19.066406 14.480469 19.070312 Z M 14.480469 15.820312 C 13.710938 15.820312 13.089844 16.441406 13.089844 17.210938 C 13.089844 17.976562 13.710938 18.601562 14.480469 18.601562 C 15.246094 18.601562 15.871094 17.976562 15.871094 17.210938 C 15.871094 16.441406 15.246094 15.820312 14.480469 15.820312 Z M 14.480469 15.820312 "/>
</g>
</g>
<g clip-path="url(#clip11)" clip-rule="nonzero">
<g clip-path="url(#clip12)" clip-rule="nonzero">
<path style=" stroke:none;fill-rule:nonzero;fill:rgb(0%,0%,0%);fill-opacity:1;" d="M 15.390625 17.210938 C 15.390625 17.710938 14.984375 18.121094 14.480469 18.121094 C 13.976562 18.121094 13.570312 17.710938 13.570312 17.210938 C 13.570312 16.707031 13.976562 16.300781 14.480469 16.300781 C 14.984375 16.300781 15.390625 16.707031 15.390625 17.210938 Z M 15.390625 17.210938 "/>
</g>
</g>
<g clip-path="url(#clip13)" clip-rule="nonzero">
<g clip-path="url(#clip14)" clip-rule="nonzero">
<path style=" stroke:none;fill-rule:nonzero;fill:rgb(100%,100%,100%);fill-opacity:1;" d="M 14.539062 16.839844 C 14.539062 17.050781 14.371094 17.21875 14.160156 17.21875 C 13.949219 17.21875 13.78125 17.050781 13.78125 16.839844 C 13.78125 16.628906 13.949219 16.460938 14.160156 16.460938 C 14.371094 16.460938 14.539062 16.628906 14.539062 16.839844 Z M 14.539062 16.839844 "/>
</g>
</g>
<g clip-path="url(#clip15)" clip-rule="nonzero">
<g clip-path="url(#clip16)" clip-rule="nonzero">
<path style=" stroke:none;fill-rule:nonzero;fill:rgb(100%,100%,100%);fill-opacity:1;" d="M 21.519531 19.070312 C 20.492188 19.070312 19.660156 18.238281 19.660156 17.210938 C 19.660156 16.183594 20.492188 15.351562 21.519531 15.351562 C 22.546875 15.351562 23.378906 16.183594 23.378906 17.210938 C 23.378906 18.238281 22.546875 19.070312 21.519531 19.070312 Z M 21.519531 15.820312 C 20.753906 15.820312 20.128906 16.441406 20.128906 17.210938 C 20.128906 17.976562 20.753906 18.601562 21.519531 18.601562 C 22.289062 18.601562 22.910156 17.976562 22.910156 17.210938 C 22.910156 16.441406 22.289062 15.820312 21.519531 15.820312 Z M 21.519531 15.820312 "/>
</g>
</g>
<g clip-path="url(#clip17)" clip-rule="nonzero">
<g clip-path="url(#clip18)" clip-rule="nonzero">
<path style=" stroke:none;fill-rule:nonzero;fill:rgb(0%,0%,0%);fill-opacity:1;" d="M 20.609375 17.210938 C 20.609375 17.710938 21.015625 18.121094 21.519531 18.121094 C 22.023438 18.121094 22.429688 17.710938 22.429688 17.210938 C 22.429688 16.707031 22.023438 16.300781 21.519531 16.300781 C 21.015625 16.300781 20.609375 16.707031 20.609375 17.210938 Z M 20.609375 17.210938 "/>
</g>
</g>
<g clip-path="url(#clip19)" clip-rule="nonzero">
<g clip-path="url(#clip20)" clip-rule="nonzero">
<path style=" stroke:none;fill-rule:nonzero;fill:rgb(100%,100%,100%);fill-opacity:1;" d="M 21.460938 16.839844 C 21.460938 17.050781 21.628906 17.21875 21.839844 17.21875 C 22.050781 17.21875 22.21875 17.050781 22.21875 16.839844 C 22.21875 16.628906 22.050781 16.460938 21.839844 16.460938 C 21.628906 16.460938 21.460938 16.628906 21.460938 16.839844 Z M 21.460938 16.839844 "/>
</g>
</g>
<g clip-path="url(#clip21)" clip-rule="nonzero">
<g clip-path="url(#clip22)" clip-rule="nonzero">
<path style=" stroke:none;fill-rule:nonzero;fill:rgb(0%,0%,0%);fill-opacity:1;" d="M 18 23.371094 C 16.972656 23.425781 15.976562 23.019531 15.28125 22.261719 C 15.160156 22.109375 15.1875 21.890625 15.339844 21.769531 C 15.496094 21.652344 15.71875 21.675781 15.839844 21.828125 C 16.402344 22.410156 17.191406 22.71875 18 22.671875 C 18.808594 22.71875 19.597656 22.410156 20.160156 21.828125 C 20.28125 21.675781 20.503906 21.652344 20.660156 21.769531 C 20.8125 21.890625 20.839844 22.109375 20.71875 22.261719 C 20.023438 23.019531 19.027344 23.425781 18 23.371094 Z M 18 23.371094 "/>
</g>
</g>
<g clip-path="url(#clip23)" clip-rule="nonzero">
<g clip-path="url(#clip24)" clip-rule="nonzero">
<path style=" stroke:none;fill-rule:nonzero;fill:rgb(93.333333%,93.72549%,94.509804%);fill-opacity:1;" d="M 18 37.148438 C 16 37.148438 13.851562 35.148438 13.199219 32.628906 L 12.570312 30.230469 C 12.203125 29.144531 12.402344 27.945312 13.105469 27.035156 C 13.804688 26.125 14.914062 25.628906 16.058594 25.710938 L 19.941406 25.710938 C 21.085938 25.628906 22.195312 26.125 22.894531 27.035156 C 23.597656 27.945312 23.796875 29.144531 23.429688 30.230469 L 22.800781 32.628906 C 22.148438 35.128906 20 37.148438 18 37.148438 Z M 18 37.148438 "/>
</g>
</g>
<g clip-path="url(#clip25)" clip-rule="nonzero">
<g clip-path="url(#clip26)" clip-rule="nonzero">
<path style=" stroke:none;fill-rule:nonzero;fill:rgb(93.333333%,93.72549%,94.509804%);fill-opacity:1;" d="M 18 11.378906 C 20.242188 11.390625 22.480469 11.28125 24.710938 11.050781 C 22.601562 10.113281 20.300781 9.703125 18 9.851562 C 15.699219 9.703125 13.398438 10.113281 11.289062 11.050781 C 13.519531 11.28125 15.757812 11.390625 18 11.378906 Z M 18 11.378906 "/>
</g>
</g>
<g clip-path="url(#clip27)" clip-rule="nonzero">
<g clip-path="url(#clip28)" clip-rule="nonzero">
<path style=" stroke:none;fill-rule:nonzero;fill:rgb(81.960784%,82.352941%,83.137255%);fill-opacity:1;" d="M 20.441406 10 C 20.441406 10.347656 20.15625 10.628906 19.808594 10.628906 L 16.191406 10.628906 C 15.84375 10.628906 15.558594 10.347656 15.558594 10 C 15.558594 9.652344 15.84375 9.371094 16.191406 9.371094 L 19.808594 9.371094 C 20.15625 9.371094 20.441406 9.652344 20.441406 10 Z M 20.441406 10 "/>
</g>
</g>
<g clip-path="url(#clip29)" clip-rule="nonzero">
<g clip-path="url(#clip30)" clip-rule="nonzero">
<path style=" stroke:none;fill-rule:nonzero;fill:rgb(81.960784%,82.352941%,83.137255%);fill-opacity:1;" d="M 17.769531 6.449219 L 18.238281 6.449219 L 18.238281 9.378906 L 17.769531 9.378906 Z M 17.769531 6.449219 "/>
</g>
</g>
<g clip-path="url(#clip31)" clip-rule="nonzero">
<g clip-path="url(#clip32)" clip-rule="nonzero">
<path style=" stroke:none;fill-rule:nonzero;fill:rgb(100%,100%,100%);fill-opacity:1;" d="M 19.21875 6.449219 C 19.21875 7.125 18.671875 7.671875 18 7.671875 C 17.328125 7.671875 16.78125 7.125 16.78125 6.449219 C 16.78125 5.777344 17.328125 5.230469 18 5.230469 C 18.671875 5.230469 19.21875 5.777344 19.21875 6.449219 Z M 19.21875 6.449219 "/>
</g>
</g>
<g clip-path="url(#clip33)" clip-rule="nonzero">
<g clip-path="url(#clip34)" clip-rule="nonzero">
<path style=" stroke:none;fill-rule:nonzero;fill:rgb(93.333333%,93.72549%,94.509804%);fill-opacity:1;" d="M 18 7.210938 C 18.585938 7.210938 19.089844 6.789062 19.191406 6.210938 C 19.199219 6.285156 19.199219 6.363281 19.191406 6.441406 C 19.191406 7.113281 18.644531 7.660156 17.96875 7.660156 C 17.296875 7.660156 16.75 7.113281 16.75 6.441406 C 16.738281 6.363281 16.738281 6.285156 16.75 6.210938 C 16.855469 6.8125 17.390625 7.238281 18 7.210938 Z M 18 7.210938 "/>
</g>
</g>
<g clip-path="url(#clip35)" clip-rule="nonzero">
<g clip-path="url(#clip36)" clip-rule="nonzero">
<path style=" stroke:none;fill-rule:nonzero;fill:rgb(93.333333%,93.72549%,94.509804%);fill-opacity:1;" d="M 16.191406 9.691406 L 19.808594 9.691406 C 20.097656 9.691406 20.351562 9.890625 20.421875 10.171875 C 20.425781 10.117188 20.425781 10.0625 20.421875 10.011719 C 20.421875 9.660156 20.136719 9.378906 19.789062 9.378906 L 16.191406 9.378906 C 15.84375 9.378906 15.558594 9.660156 15.558594 10.011719 C 15.554688 10.0625 15.554688 10.117188 15.558594 10.171875 C 15.628906 9.882812 15.894531 9.679688 16.191406 9.691406 Z M 16.191406 9.691406 "/>
</g>
</g>
</g>
</svg>
