<svg xmlns="http://www.w3.org/2000/svg" version="1.0" width="512.000000pt" height="512.000000pt" viewBox="0 0 512.000000 512.000000" preserveAspectRatio="xMidYMid meet">

<g transform="translate(0.000000,512.000000) scale(0.100000,-0.100000)" fill="#b8b8b8" stroke="none">
<path d="M1775 4435 c-203 -36 -405 -119 -567 -235 -99 -70 -251 -223 -322 -322 -103 -145 -184 -341 -222 -533 -24 -122 -24 -367 -1 -488 107 -540 502 -949 1040 -1074 97 -23 135 -27 282 -27 125 -1 193 4 258 17 177 36 362 112 501 206 l59 40 52 -47 c28 -26 345 -321 704 -657 358 -335 666 -618 684 -628 126 -69 274 62 223 197 -14 37 -123 142 -721 701 -415 388 -702 662 -698 669 4 6 26 37 49 68 93 127 167 290 212 465 25 101 27 121 26 318 0 202 -1 215 -31 325 -136 512 -519 880 -1036 995 -101 23 -387 29 -492 10z m444 -170 c356 -68 671 -307 831 -630 56 -114 81 -186 105 -300 132 -642 -297 -1277 -946 -1400 -120 -22 -327 -20 -452 6 -477 96 -849 481 -934 964 -23 132 -14 358 20 485 91 349 326 632 652 786 101 48 243 89 356 104 96 12 262 5 368 -15z" fill="#b8b8b8"/>
</g>
</svg>